/* XPM */
static char * collect_xpm[] = {
"50 50 7 1",
" 	c None",
".	c #9D9D9D",
"+	c #B2DCEF",
"@	c #FFFFFF",
"#	c #F7E26B",
"$	c #EB8931",
"%	c #E06F8B",
"                                                  ",
"                                                  ",
"                                                  ",
"                                                  ",
"                                                  ",
"                                                  ",
"                                                  ",
"                                                  ",
"                   .......                        ",
"                  ++++++++                        ",
"                 @@@@@@@@@                        ",
"                @@@@@@@@@@@                       ",
"               @@@@@@@@@@@@@@@                    ",
"              @@@@@@@@@@@@@@@@@                   ",
"             #@@@@@@@@@@@@@@@@@#                  ",
"             #@@@@@@@@@@@@@@@@##                  ",
"             #@@@@@@@@@@@#######                  ",
"             #+@@@@##@@@########+                 ",
"             .+@@@@######$$$$$%.++@@+.            ",
"             .+@@@@#$###$$$$$$%..++++.            ",
"             .+@@@@#$##$$$##$$%...+++.            ",
"             ..@@@@#$#$$$$$#$$%.......            ",
"             ..#@@@#$$$$$$$$$$%.  ....            ",
"             ..#@@@#$$$$$$$$$$%.  ....            ",
"             ..$#@@#$$$##$$$$$%.  ....            ",
"             .%$####$$$$$$$$$$%.  ....            ",
"             ..$###$$$$$$$$$$$%.  ....            ",
"             ..$###$$$$$$$$#$$%.  ....            ",
"             ..$$##$$$$$$$##$$%.  ....            ",
"             ..$$$$$$$$$$$$$$$%.  ....            ",
"             ..$$$$$$$$$$$$$$$%.  +...            ",
"             ..$$$$$$#$$$$$$$$%.++++..            ",
"             ..$$$$$$##$$$$$$$%.+++++.            ",
"             ..$$$$$$$$$$$$$$$%..+++..            ",
"             ..%$$$$$$$$$$$$$$........            ",
"             ...%$$$$$$$$$$$%....                 ",
"             ....%%%%####%%%....                  ",
"              .....++@@@++.....                   ",
"               ....++@@@++....                    ",
"                  ..+++++..                       ",
"                   .......                        ",
"                                                  ",
"                                                  ",
"                                                  ",
"                                                  ",
"                                                  ",
"                                                  ",
"                                                  ",
"                                                  ",
"                                                  "};
