/* XPM */
static char * exit_xpm[] = {
"50 50 12 1",
" 	c None",
".	c #E06F8B",
"+	c #493C2B",
"@	c #BE2633",
"#	c #A46422",
"$	c #9D9D9D",
"%	c #5A5268",
"&	c #B2DCEF",
"*	c #2F484E",
"=	c #1B2632",
"-	c #000000",
";	c #FFFFFF",
"                                                  ",
"                                                  ",
"                                                  ",
"               .........++.........               ",
"               ........@++@........               ",
"                .......@++@.......                ",
"          ... +@@@@@@@@@++@@@@@@@@@+ ...          ",
"          ... +@@@@@@@@@++@@@@@@@@@+ ...          ",
"        ....@+++@@@@@@@@++@@@@@@@@+++@....        ",
"       ....@@++@@@@@@@@@++@@@@@@@@@++@@....       ",
"        ..@@@++@@@@@@@@@++@@@@@@@@@++@@@..        ",
"        @@@@@++@@@@@@@@@++@@@@@@@@@++@@@@@        ",
"        ..@@@++#@@@@@@@@++@@@@@@@@#++@@@@@        ",
"     $$$$$.##%%%.......%%%%.......%%%$....$$      ",
"     $$$&&$%%%$$$$$$$$$$$$$$$$$$$$$$$$$$$$$$$     ",
"     $$&&&$%%$$$$$$$$$$$$$$$$$$$$$$$$$$$$$$$$     ",
"     %$$&&$%%$$$$$$$$$$$$$$$$$$$$$$$$$$$$$$$$     ",
"     *%$$$%*%$$$$$$$$$$$$$$$$$$$$$$$$$$$$$$$$     ",
"     %%$$$%**%$$$$$$$$$$$$$$$$$$$$$$$$$$$$$$$     ",
"     $$$$$%*=%%%%%%%%%%%%%%%%%%%%%%%%%%%%%%%%     ",
"     $$$$$%+===++++++++++++++++++++++++++++++     ",
"     $$$$%%++--+++++++++--+++--+++%%%+++--+++     ",
"     %%%%%#@@+-+@@@@@@@+++@@@+-+@@%$$#@@+++@@     ",
"     +++++@@@+++@@@@@@@@++@@@+++@#$$$.@@++@@@     ",
"     @@@@@@@@++@@@@@@@@@++@@@++%%$$%%$$%++@@@     ",
"     @@@@@@@@++@@@@@@@@@++@@@++%$$%%%$$%++@@@     ",
"     @@@@@@@@++@@@@@@@@@++@@@++%$$$$$$$%*+@@@     ",
"     @@@@@@@@++@@@@@@@@@++@@@++%$$$&&$$%*+@@@     ",
"     @@@@@@@@+++@@@@@@@@++@@@++%$$&;&$$%%+@@@     ",
"     ......@#%%%.......%%%%.#%%$$$&&&$$$%%%..     ",
"     $$$&&$%%%$$$$$$$$$$$$$$$$$$$$$$$$$$$$$$$     ",
"     $$&&&$%%$$$$$$$$$$$$$$$$$$$$$$$$$$$$$$$$     ",
"     %$$&&$%%$$$$$$$$$$$$$$$$$$$$$$$$$$$$$$$$     ",
"     *%$$$$*%$$$$$$$$$$$$$$$$$$$$$$$$$$$$$$$$     ",
"     %%$$$%*%%$$$$$$$$$$$$$$$$$$$$$$$$$$$$$$$     ",
"     %$$$$%*+%%%%%%%%%%%%%%%%%%%%%%%%%%%%%%%%     ",
"     $$$$$%+==+++++++++++++++++++++++++++++++     ",
"     $$$$%%++--+++++++++--+++++++++--++++++++     ",
"     %%%%%#@@+-+@@@@@@@++++@@@@@@@+-+@@@@@@@@     ",
"     +++++@@@+++@@@@@@@@++@@@@@@@@+++@@@@@@@@     ",
"     @@@@@@@@++@@@@@@@@@++@@@@@@@@@++@@@@@@@@     ",
"     @@@@@@@@++@@@@@@@@@++@@@@@@@@@++@@@@@@@@     ",
"     @@@@@@@@++@@@@@@@@@++@@@@@@@@@++@@@@@@@@     ",
"     @@@@@@@@++@@@@@@@@@++@@@@@@@@@++@@@@@@@@     ",
"     @@@@@@@@++@@@@@@@@@++@@@@@@@@@++@@@@@@@@     ",
"     @@@@@@@@++@@@@@@@@@++@@@@@@@@@++@@@@@@@@     ",
"                                                  ",
"                                                  ",
"                                                  ",
"                                                  "};
