/* XPM */
static char * player_right_standing_xpm[] = {
"50 50 9 1",
" 	c None",
".	c #BE2633",
"+	c #E06F8B",
"@	c #5A5268",
"#	c #A46422",
"$	c #493C2B",
"%	c #9D9D9D",
"&	c #2F484E",
"*	c #000000",
"                                                  ",
"                                                  ",
"                                                  ",
"                                                  ",
"                     ...........                  ",
"                    .............                 ",
"                   ...............                ",
"                  ..................              ",
"                 ...................              ",
"                 .........++++++....              ",
"                 ........++++++++...              ",
"                 ........+++++++++..              ",
"                 ........+++++++++.               ",
"                 ........+++@@++++                ",
"                 .......++++#@++++                ",
"                 ......+++++++++++                ",
"                 .....++++++++++++                ",
"                  .....+++++++++++                ",
"                 $$$$$..++++++++++                ",
"                  $$$$...++++++++                 ",
"                %      .........                  ",
"              %%%%%%%%  $$$$$$$$                  ",
"              %%%%%%%%%                           ",
"            %%%%%%%%%%%%                          ",
"            %%%%%%%%%%%%%%%%%%%%%                 ",
"            %%%%%%%%%%%%%%%%%%%%%                 ",
"            %%%%%   %%%%%%%%%%%%%   +++++         ",
"            %%%%%   %%%%%%%%%%%%% $ ++++++        ",
"                   %%%%%%%%%%%%%% $ ++++++        ",
"              &   %%%%%%%%%%%%%%% $ ++++++        ",
"             $$   %%%%%%%%%%%%%%% $ +++++         ",
"             ...                     +++          ",
"            +++++ $$$$$$$$$$$$$$$                 ",
"           ++++++ $*$$$$$$$$$$$$$                 ",
"           ++++++ $$.............                 ",
"            +++++ $$.............                 ",
"            +++++................                 ",
"                 ................                 ",
"                 ................                 ",
"                 ................                 ",
"                 .........$......                 ",
"                 ........$$$.....                 ",
"                 $$$$$.  $**$$.                   ",
"                 $$$$$   &$$$$                    ",
"                                                  ",
"                  %%%%    %%%%                    ",
"                 %%%%%%  %%%%%%                   ",
"                  %%%%+# +%%%%+                   ",
"                                                  ",
"                                                  "};
