/* XPM */
static char * player2_xpm[] = {
"50 50 257 2",
"  	c None",
". 	c #000000",
"+ 	c #9D9D9D",
"@ 	c #FFFFFF",
"# 	c #BE2633",
"$ 	c #E06F8B",
"% 	c #493C2B",
"& 	c #A46422",
"* 	c #EB8931",
"= 	c #F7E26B",
"- 	c #2F484E",
"; 	c #44891A",
"> 	c #A3CE27",
", 	c #1B2632",
"' 	c #005784",
") 	c #31A2F2",
"! 	c #B2DCEF",
"~ 	c #5A5268",
"{ 	c #000000",
"] 	c #000000",
"^ 	c #000000",
"/ 	c #000000",
"( 	c #000000",
"_ 	c #000000",
": 	c #000000",
"< 	c #000000",
"[ 	c #000000",
"} 	c #000000",
"| 	c #000000",
"1 	c #000000",
"2 	c #000000",
"3 	c #000000",
"4 	c #000000",
"5 	c #000000",
"6 	c #000000",
"7 	c #000000",
"8 	c #000000",
"9 	c #000000",
"0 	c #000000",
"a 	c #000000",
"b 	c #000000",
"c 	c #000000",
"d 	c #000000",
"e 	c #000000",
"f 	c #000000",
"g 	c #000000",
"h 	c #000000",
"i 	c #000000",
"j 	c #000000",
"k 	c #000000",
"l 	c #000000",
"m 	c #000000",
"n 	c #000000",
"o 	c #000000",
"p 	c #000000",
"q 	c #000000",
"r 	c #000000",
"s 	c #000000",
"t 	c #000000",
"u 	c #000000",
"v 	c #000000",
"w 	c #000000",
"x 	c #000000",
"y 	c #000000",
"z 	c #000000",
"A 	c #000000",
"B 	c #000000",
"C 	c #000000",
"D 	c #000000",
"E 	c #000000",
"F 	c #000000",
"G 	c #000000",
"H 	c #000000",
"I 	c #000000",
"J 	c #000000",
"K 	c #000000",
"L 	c #000000",
"M 	c #000000",
"N 	c #000000",
"O 	c #000000",
"P 	c #000000",
"Q 	c #000000",
"R 	c #000000",
"S 	c #000000",
"T 	c #000000",
"U 	c #000000",
"V 	c #000000",
"W 	c #000000",
"X 	c #000000",
"Y 	c #000000",
"Z 	c #000000",
"` 	c #000000",
" .	c #000000",
"..	c #000000",
"+.	c #000000",
"@.	c #000000",
"#.	c #000000",
"$.	c #000000",
"%.	c #000000",
"&.	c #000000",
"*.	c #000000",
"=.	c #000000",
"-.	c #000000",
";.	c #000000",
">.	c #000000",
",.	c #000000",
"'.	c #000000",
").	c #000000",
"!.	c #000000",
"~.	c #000000",
"{.	c #000000",
"].	c #000000",
"^.	c #000000",
"/.	c #000000",
"(.	c #000000",
"_.	c #000000",
":.	c #000000",
"<.	c #000000",
"[.	c #000000",
"}.	c #000000",
"|.	c #000000",
"1.	c #000000",
"2.	c #000000",
"3.	c #000000",
"4.	c #000000",
"5.	c #000000",
"6.	c #000000",
"7.	c #000000",
"8.	c #000000",
"9.	c #000000",
"0.	c #000000",
"a.	c #000000",
"b.	c #000000",
"c.	c #000000",
"d.	c #000000",
"e.	c #000000",
"f.	c #000000",
"g.	c #000000",
"h.	c #000000",
"i.	c #000000",
"j.	c #000000",
"k.	c #000000",
"l.	c #000000",
"m.	c #000000",
"n.	c #000000",
"o.	c #000000",
"p.	c #000000",
"q.	c #000000",
"r.	c #000000",
"s.	c #000000",
"t.	c #000000",
"u.	c #000000",
"v.	c #000000",
"w.	c #000000",
"x.	c #000000",
"y.	c #000000",
"z.	c #000000",
"A.	c #000000",
"B.	c #000000",
"C.	c #000000",
"D.	c #000000",
"E.	c #000000",
"F.	c #000000",
"G.	c #000000",
"H.	c #000000",
"I.	c #000000",
"J.	c #000000",
"K.	c #000000",
"L.	c #000000",
"M.	c #000000",
"N.	c #000000",
"O.	c #000000",
"P.	c #000000",
"Q.	c #000000",
"R.	c #000000",
"S.	c #000000",
"T.	c #000000",
"U.	c #000000",
"V.	c #000000",
"W.	c #000000",
"X.	c #000000",
"Y.	c #000000",
"Z.	c #000000",
"`.	c #000000",
" +	c #000000",
".+	c #000000",
"++	c #000000",
"@+	c #000000",
"#+	c #000000",
"$+	c #000000",
"%+	c #000000",
"&+	c #000000",
"*+	c #000000",
"=+	c #000000",
"-+	c #000000",
";+	c #000000",
">+	c #000000",
",+	c #000000",
"'+	c #000000",
")+	c #000000",
"!+	c #000000",
"~+	c #000000",
"{+	c #000000",
"]+	c #000000",
"^+	c #000000",
"/+	c #000000",
"(+	c #000000",
"_+	c #000000",
":+	c #000000",
"<+	c #000000",
"[+	c #000000",
"}+	c #000000",
"|+	c #000000",
"1+	c #000000",
"2+	c #000000",
"3+	c #000000",
"4+	c #000000",
"5+	c #000000",
"6+	c #000000",
"7+	c #000000",
"8+	c #000000",
"9+	c #000000",
"0+	c #000000",
"a+	c #000000",
"b+	c #000000",
"c+	c #000000",
"d+	c #000000",
"e+	c #000000",
"f+	c #000000",
"g+	c #000000",
"h+	c #000000",
"i+	c #000000",
"j+	c #000000",
"k+	c #000000",
"l+	c #000000",
"m+	c #000000",
"n+	c #000000",
"o+	c #000000",
"p+	c #000000",
"q+	c #000000",
"r+	c #000000",
"s+	c #000000",
"t+	c #000000",
"u+	c #000000",
"v+	c #000000",
"w+	c #000000",
"x+	c #000000",
"y+	c #000000",
"z+	c #000000",
"A+	c #000000",
"B+	c #000000",
"C+	c #000000",
"D+	c #000000",
"E+	c #000000",
"F+	c #000000",
"G+	c #000000",
"H+	c #00FF00",
"                                                                                                    ",
"                                                                                                    ",
"                                                                                                    ",
"                                                                                                    ",
"                                                                                                    ",
"                                                                                                    ",
"                                                                                                    ",
"                                          # # # # # # # # # # # #                                   ",
"                                        # # # # # # # # # # # # # #                                 ",
"                                      # # # # # # # # # # # # # # #                                 ",
"                                    # # # # # # # # # # # # # # # #                                 ",
"                                    # # # # # # # # # # # # # # # #                                 ",
"                                    # # # # # # # $ $ $ $ $ $ $                                     ",
"                                    # # # # # # # $ $ $ $ $ $ $                                     ",
"                                    # # # # # # $ $ $ $ $ $ $ $                                     ",
"                                    # # # # # # $ $ $ & ~ $ $ $                                     ",
"                                    # # # # # $ $ $ $ $ & $ $ $                                     ",
"                                    # # # # $ $ $ $ $ $ $ $ $ $           $ $ $ $                   ",
"                                  & # # # # # $ $ $ $ $ $ $ $ $         $ $ $ $ $                   ",
"                            + + + ~ ~ % % # # # $ $ $ $ $ $ $ $       % $ $ $ $ $                   ",
"                          + + + + + ~ % % % # # # $ $ $ $ $ $ $     - ~ ~ $ $ $ $                   ",
"                        ~ + + + + + + ~ ~ ~ ~ # # # # # # # & $ + + + ~ ~ ~ $ $                     ",
"                      % ~ + + + + + + + + + ~ % % % % % % % % ~ + + + + ~ ~ %                       ",
"                    $ ~ ~ ~ + + + + + + + + + ~ ~ ~ ~ ~ ~ ~ ~ ~ + + + + + -                         ",
"                  $ $ $ $ ~ ~ - ~ ~ + + + + + + + + + + + + + + + + + + +                           ",
"                $ $ $ $ $ ~ , . , ~ + + + + + + + + + + + + + + + + + +                             ",
"                $ $ $ $ $ $       + + + + + + + + + + + + + + + + + +                               ",
"                  $ $ $ $           + + + + + + + + + + + + + + + +                                 ",
"                    $ $             ~ ~ ~ ~ ~ ~ ~ ~ ~ ~ ~ ~ ~ + +                                   ",
"                                    % % % % % % % % % % % % % ~                                     ",
"                                    % % % % % % % % % % % % % #                                     ",
"                                    # # # # # # # # # # # # # # # # # #                             ",
"                                  # # # # # # # # # # # # # # # # # # # #                           ",
"                            # # # # # # # # # # # # # # # # # # # # # # #                           ",
"                          # # # # # # # # # # # # # # # # # # # # # # # #                           ",
"                        # # # # # # # # # # # # # # # # # # # # # # # # #                           ",
"                      , % # # # # # # #                         # # # # #                           ",
"                      ~ ~ # # # # # # #                         # # # # &                           ",
"                      + ~ ~ % #                                 % % % % ~ +                         ",
"                      + + ~ ~                                   . , % ~ ~ + +                       ",
"                      + + + +                                     - ~ + + + +                       ",
"                      + + + +                                       + + + + +                       ",
"                        + +                                           + + +                         ",
"                                                                                                    ",
"                                                                                                    ",
"                                                                                                    ",
"                                                                                                    ",
"                                                                                                    ",
"                                                                                                    ",
"                                                                                                    "};
