/* XPM */
static char * player_up_xpm[] = {
"50 50 10 1",
" 	c None",
".	c #BE2633",
"+	c #E06F8B",
"@	c #493C2B",
"#	c #000000",
"$	c #9D9D9D",
"%	c #2F484E",
"&	c #5A5268",
"*	c #1B2632",
"=	c #A46422",
"                                                  ",
"                                                  ",
"                                                  ",
"                                                  ",
"                     ............                 ",
"                    ..............                ",
"                   ...............                ",
"                  ................                ",
"                 .................                ",
"                 ...............+.                ",
"            +++ @..............+++                ",
"            +++ @..............+++                ",
"            +++ @..............+++                ",
"            +++ @..............+++                ",
"            ++.@@@.............+++                ",
"              @@#@@@@@@@@@@@@@.+++                ",
"             @@@@@@@@@@@@@@@@@ +++                ",
"                                +                 ",
"             $$$$$$$$$$$$$$$$$                    ",
"            $$$$$$$$$$$$$$$$$$$  %                ",
"            $$$$$$$$$$$$$$$$$$$$     +            ",
"            $$$$$$$$$$$$$$$$$$$$$    ++           ",
"            $$$$$$$$$$$$$$$$$$$$$  @.++           ",
"            $$$$$$$$$$$$$$$$$ $$$  @.+++          ",
"            $$$$$$$$$$$$$$$$   $$$  +++           ",
"             $$$$$$$$$$$$$$$ % $$$   ++           ",
"                 $$$$$$$$$$$ % $$$$$$             ",
"                 $$$$$$$$$$$ %  $$$$              ",
"                 $$$$$$$$$$&%*%                   ",
"                 $$$$$$$$$ @***@%                 ",
"                  $$$$$$$  @@@@@@@@@              ",
"                          ..........              ",
"                  @@@@@@@...........              ",
"                  @@@@@@@............             ",
"                  ............@@.....             ",
"                 ............@@@@...              ",
"                ............      =.              ",
"               ...........@  $$$$                 ",
"               ...........@  $$$$$                ",
"               ..........    $$$$                 ",
"               ........                           ",
"               ........                           ",
"                 .@@@@@                           ",
"                  @@@@@                           ",
"                                                  ",
"                  $$$$                            ",
"                  $$$$$                           ",
"                  $$$$+=                          ",
"                                                  ",
"                                                  "};
