/* XPM */
static char * wall_x_xpm[] = {
"50 50 80 1",
" 	c #150406",
".	c #160709",
"+	c #17080B",
"@	c #0B0203",
"#	c #64141A",
"$	c #6D232D",
"%	c #763B4A",
"&	c #784252",
"*	c #6A151C",
"=	c #5A1218",
"-	c #190507",
";	c #4B0E13",
">	c #1D0608",
",	c #010000",
"'	c #BD2633",
")	c #C63B4D",
"!	c #D45F78",
"~	c #DB6984",
"{	c #D95D75",
"]	c #C22634",
"^	c #AE232F",
"/	c #3C0C10",
"(	c #240709",
"_	c #921D26",
":	c #CA3D4E",
"<	c #C42D3B",
"[	c #CA3B4C",
"}	c #CE3F51",
"|	c #CA2836",
"1	c #961E28",
"2	c #CC303F",
"3	c #420D12",
"4	c #24080B",
"5	c #C92735",
"6	c #581016",
"7	c #1B0A0D",
"8	c #72161E",
"9	c #561117",
"0	c #7C2833",
"a	c #844252",
"b	c #88495C",
"c	c #7B2732",
"d	c #C62835",
"e	c #D13D4F",
"f	c #DE6781",
"g	c #C92D3C",
"h	c #CA3444",
"i	c #CB3A4C",
"j	c #B1232F",
"k	c #991E29",
"l	c #A5212C",
"m	c #380B0F",
"n	c #550F14",
"o	c #580F15",
"p	c #1C0E11",
"q	c #7D1921",
"r	c #852A37",
"s	c #93485A",
"t	c #975165",
"u	c #892C38",
"v	c #821922",
"w	c #DA5A72",
"x	c #DF637C",
"y	c #CC3B4C",
"z	c #C53342",
"A	c #B42430",
"B	c #8B1B25",
"C	c #4F1015",
"D	c #410B0F",
"E	c #221115",
"F	c #29080B",
"G	c #97303E",
"H	c #A14E62",
"I	c #A5576D",
"J	c #942F3C",
"K	c #D33B4D",
"L	c #DB576F",
"M	c #DE6079",
"N	c #CC394A",
"O	c #C5303F",
"    .++..@@@@          @@    .++..@@@@          @@",
"    .++..@@@@          @@    .++..@@@@          @@",
"##$$%&&%%$$**#######=--@@;;$$%&&%%$$**#######=>>,,",
"##$$%&&%%$$**#######=--@@;;$$%&&%%$$**#######=>>,,",
"''))!~~{{))''''''']]^//((__::{~~{{::''''''']]^//,,",
"''))!~~{{))''''''']]^//((__::{~~{{::''''''']]^//,,",
"]]<<[}}[[<<]]]]]]]||^//((1122[}}[[<<]]]]]]]||^33,,",
"]]]]]]]]]]]]]]]]]]||^//441155]]]]]]]]]]]]]]||^33,,",
"]]]]]]]]]]]]]]]]]]||^//441155]]]]]]]]]]]]]]||^33,,",
"'''''''''''''''''']]^//((__]]'''''''''''''']]^33,,",
"'''''''''''''''''']]^//((__]]'''''''''''''']]^33,,",
"###########**#######6--@@;;#########**#######6>>,,",
"###########**#######6--@@;;#########**#######6>>,,",
"         @@@@ ..++77+  @@         @@@@ ..++77+  @@",
"         @@@@ ..++77+  @@         @@@@ ..++77+  @@",
"8888888##>>  900aabba00888888888##>>  900aabbacc88",
"]]]]]dd^^//((1ee{{ff{[[]]]]]]]dd^^//((1ee{{ff{[[]]",
"]]]]]dd^^//((1ee{{ff{[[]]]]]]]dd^^//((1ee{{ff{[[]]",
"]]]]]dd^^//((1gghhiih<<]]]]]]]dd^^//((1gghhiih<<]]",
"]]]]]dd^^//((1gghhiih<<]]]]]]]dd^^//((1gghhiih<<]]",
"]]]]]||jj//((k55]]]]]]]]]]]]]]||^^//44k55]]]]]]]]]",
"]]]]]||jj//((k55]]]]]]]]]]]]]]||^^//44k55]]]]]]]]]",
"''''']]llmm((_]]''''''''''''''''llmm((_]]'''''''''",
"''''']]llmm((_]]''''''''''''''''llmm((_]]'''''''''",
"9999noo;;  @@3==99999======99noo;;  @@3==99999====",
"--++7pp77..   ------ @@,,  ++7pp77..  ------- @@,,",
"--++7pp77..   ------ @@,,  ++7pp77..  ------- @@,,",
"qqrrsttssuuvvqqqqqvv8((  ##uusttssuuvvqqqqqvv844,,",
"qqrrsttssuuvvqqqqqvv8((  ##uusttssuuvvqqqqqvv844,,",
"]]iiwxxwwyy]]]]]]]||^//((11eewxxwwyy]]]]]]]||^33,,",
"]]iiwxxwwyy]]]]]]]||^//((11eewxxwwyy]]]]]]]||^33,,",
"''<<zzzzz<<'''''''dd^//((11ggzzzzz<<''']]]]dd^33,,",
"]]]]]]]]]]]]]]]]]]||j//44kk55]]]]]]]]]]]]]]||j33,,",
"]]]]]]]]]]]]]]]]]]||j//44kk55]]]]]]]]]]]]]]||j33,,",
"AAAAAAAAAAAAAAAAAA''lmm((BB''AAAAAAAAAAAAAA''l//,,",
"AAAAAAAAAAAAAAAAAA''lmm((BB''AAAAAAAAAAAAAA''l//,,",
";;;;;;;;;CCCC;;;;;;;D  @@mm;;;;;;;CCCC;;;;;;;D  ,,",
";;;;;;;;;CCCC;;;;;;;D  @@mm;;;;;;;CCCC;;;;;;;D  ,,",
">>>>>>>--@@,, 44EEEEE77>>>>>>>>>--@@,, 44EEEEE77>>",
">>>>>>>--@@,, 44EEEEE77>>>>>>>>>--@@,, 44EEEEE77>>",
"BBBBBBBqqFF  *GGHHIIHJJBBBBBBBBBqqFF  *GGHHIIHJJBB",
"]]]]]||jj//((kKKLLMMLNN]]]]]]]||AA//((kKKLLMMLNN]]",
"]]]]]||jj//((kKKLLMMLNN]]]]]]]||AA//((kKKLLMMLNN]]",
"''''']]^^//((1dd<<OO<]]'''''''dd^^//((1dd<<OO<]]''",
"''''']]^^//((1dd<<OO<]]'''''''dd^^//((1dd<<OO<]]''",
"]]]]]||AA//44k||]]]]]]]]]]]]]d||AA//44k||]]]]]]]]]",
"]]]]]||AA//44k||]]]]]]]]]]]]]d||AA//44k||]]]]]]]]]",
"^^^^^AAkkmm((BAA^^^^^^^^^^^^^^AAkkmm((BAA^^^^^^^^^",
"3333333//  @@m333333333333333333//  @@m33333333333",
"3333333//  @@m333333333333333333//  @@m33333333333"};
